<?xml version="1.0" encoding="UTF-8" standalone="no"?>
<!DOCTYPE svg PUBLIC "-//W3C//DTD SVG 1.1//EN" "http://www.w3.org/Graphics/SVG/1.1/DTD/svg11.dtd">
<svg version="1.1" xmlns="http://www.w3.org/2000/svg" xmlns:xlink="http://www.w3.org/1999/xlink" preserveAspectRatio="xMidYMid meet" viewBox="0 0 505.24 493.3" width="505.24" height="493.3"><defs><path d="M277.69 17.84L285.93 19.01L294.06 20.51L302.08 22.32L309.98 24.44L317.75 26.86L325.39 29.57L332.89 32.57L340.24 35.86L347.44 39.41L354.47 43.24L361.34 47.32L368.03 51.66L374.55 56.24L380.87 61.07L387 66.13L392.94 71.42L398.66 76.93L404.17 82.65L409.46 88.59L414.52 94.72L419.35 101.04L423.93 107.56L428.27 114.25L432.35 121.12L436.18 128.15L439.73 135.35L443.02 142.7L446.02 150.2L448.73 157.83L451.15 165.61L453.27 173.51L455.08 181.53L456.58 189.66L457.75 197.9L458.6 206.24L459.11 214.68L459.29 223.2L459.13 231.3L458.75 237.81L458.75 223.2L45.49 223.2L45.66 214.68L46.18 206.24L47.03 197.9L48.2 189.66L49.7 181.53L51.51 173.51L53.63 165.61L56.05 157.83L58.76 150.2L61.76 142.7L65.04 135.35L68.6 128.15L72.42 121.12L76.51 114.25L80.85 107.56L85.43 101.04L90.26 94.72L95.32 88.59L100.61 82.65L106.12 76.93L111.84 71.42L117.77 66.13L123.9 61.07L130.23 56.24L136.74 51.66L143.44 47.32L150.31 43.24L157.34 39.41L164.54 35.86L171.89 32.57L179.38 29.57L187.02 26.86L194.79 24.44L202.69 22.32L210.71 20.51L218.85 19.01L227.09 17.84L235.43 16.99L243.87 16.48L252.39 16.3L260.91 16.48L269.35 16.99L269.35 16.99L277.69 17.84Z" id="d3oqT3W1pv"></path><path d="M316.3 65.97L324.37 66.78L332.32 67.93L340.13 69.4L347.8 71.2L355.31 73.34L362.66 75.81L369.84 78.61L376.82 81.76L383.62 85.24L390.2 89.06L396.58 93.22L402.72 97.72L408.63 102.57L414.29 107.76L419.7 113.29L424.79 119.11L429.52 125.17L433.89 131.44L437.89 137.92L441.54 144.6L444.83 151.46L447.77 158.51L450.35 165.72L452.59 173.09L454.48 180.61L456.02 188.27L457.21 196.06L458.07 203.96L458.58 211.97L458.75 220.08L458.59 228.28L458.1 236.56L457.27 244.9L456.11 253.3L454.62 261.75L452.8 270.23L450.66 278.74L448.2 287.27L445.42 295.81L442.32 304.35L438.9 312.87L435.16 321.37L431.12 329.83L426.76 338.25L422.09 346.62L417.12 354.93L411.84 363.16L406.26 371.31L400.37 379.37L394.19 387.32L387.71 395.16L380.94 402.87L373.87 410.45L366.51 417.89L358.86 425.18L351 432.23L343 438.98L334.89 445.43L326.67 451.58L318.34 457.43L309.93 462.97L301.44 468.2L292.88 473.13L284.25 477.74L275.58 482.05L266.87 486.04L258.14 489.73L249.38 493.1L248.79 493.3L248.79 71.16L257.19 69.43L265.84 67.97L274.44 66.83L282.98 66.01L291.45 65.51L299.83 65.34L308.12 65.49L316.3 65.97Z" id="at6RdIoOx"></path><path d="M271.17 0.76L280.4 1.7L289.53 3L298.53 4.66L307.41 6.66L316.16 9.01L324.76 11.69L333.22 14.69L341.52 18.01L349.66 21.65L357.63 25.59L365.42 29.82L373.02 34.34L380.43 39.15L387.65 44.22L394.65 49.57L401.44 55.17L408.01 61.03L414.34 67.13L420.44 73.47L426.3 80.03L431.9 86.82L437.25 93.83L442.33 101.04L447.13 108.45L451.65 116.05L455.89 123.84L459.82 131.81L463.46 139.95L466.78 148.25L469.78 156.71L472.46 165.31L474.81 174.06L476.81 182.94L478.47 191.94L479.77 201.07L480.71 210.31L481.28 219.65L481.29 220.2L23.49 220.2L23.5 219.65L24.07 210.31L25 201.07L26.31 191.94L27.96 182.94L29.97 174.06L32.31 165.31L34.99 156.71L38 148.25L41.32 139.95L44.95 131.81L48.89 123.84L53.13 116.05L57.65 108.45L62.45 101.04L67.53 93.83L72.87 86.82L78.48 80.03L84.33 73.47L90.43 67.13L96.77 61.03L103.34 55.17L110.13 49.57L117.13 44.22L124.34 39.15L131.76 34.34L139.36 29.82L147.15 25.59L155.12 21.65L163.26 18.01L171.56 14.69L180.01 11.69L188.62 9.01L197.36 6.66L206.24 4.66L215.25 3L224.38 1.7L233.61 0.76L242.95 0.19L252.39 0L261.83 0.19L271.17 0.76Z" id="c8ZbZrGDp"></path><path d="M459.29 223.2C459.29 331.68 375.62 420.77 269.35 429.41C263.75 429.87 258.1 430.1 252.39 430.1C138.2 430.1 45.49 337.39 45.49 223.2C45.49 109.01 138.2 16.3 252.39 16.3C366.58 16.3 459.29 109.01 459.29 223.2Z" id="a184ebpqwO"></path><path d="M25.94 275.69L24.87 275.67L23.82 275.6L22.77 275.5L21.74 275.35L20.72 275.16L19.71 274.93L18.72 274.67L17.74 274.37L16.79 274.03L15.85 273.65L14.93 273.24L14.02 272.79L13.14 272.31L12.28 271.8L11.44 271.26L10.62 270.68L9.83 270.08L9.06 269.44L8.32 268.78L7.6 268.09L6.91 267.37L6.25 266.63L5.61 265.86L5.01 265.07L4.43 264.25L3.89 263.41L3.38 262.55L2.9 261.67L2.45 260.77L2.04 259.85L1.67 258.91L1.33 257.95L1.02 256.97L0.76 255.98L0.53 254.98L0.34 253.96L0.2 252.92L0.09 251.88L0.03 250.82L0 249.75L0 196.65L0.03 195.58L0.09 194.53L0.2 193.48L0.34 192.45L0.53 191.43L0.76 190.42L1.02 189.43L1.33 188.46L1.67 187.5L2.04 186.56L2.45 185.64L2.9 184.73L3.38 183.85L3.89 182.99L4.43 182.15L5.01 181.33L5.61 180.54L6.25 179.77L6.91 179.03L7.6 178.31L8.32 177.62L9.06 176.96L9.83 176.32L10.62 175.72L11.44 175.14L12.28 174.6L13.14 174.09L14.02 173.61L14.93 173.16L15.85 172.75L16.79 172.38L17.74 172.04L18.72 171.73L19.71 171.47L20.72 171.24L21.74 171.05L22.77 170.91L23.82 170.8L24.87 170.74L25.94 170.72L52.49 170.72L52.49 275.69L25.94 275.69Z" id="e12VNlwK3K"></path><path d="M479.3 170.72L480.37 170.74L481.43 170.8L482.48 170.91L483.51 171.05L484.53 171.24L485.53 171.47L486.53 171.73L487.5 172.04L488.46 172.38L489.4 172.75L490.32 173.16L491.22 173.61L492.1 174.09L492.96 174.6L493.8 175.14L494.62 175.72L495.41 176.32L496.18 176.96L496.93 177.62L497.64 178.31L498.33 179.03L499 179.77L499.63 180.54L500.24 181.33L500.81 182.15L501.35 182.99L501.87 183.85L502.34 184.73L502.79 185.64L503.2 186.56L503.58 187.5L503.92 188.46L504.22 189.43L504.49 190.42L504.71 191.43L504.9 192.45L505.05 193.48L505.15 194.53L505.22 195.58L505.24 196.65L505.24 249.75L505.22 250.82L505.15 251.88L505.05 252.92L504.9 253.96L504.71 254.98L504.49 255.98L504.22 256.97L503.92 257.95L503.58 258.91L503.2 259.85L502.79 260.77L502.34 261.67L501.87 262.55L501.35 263.41L500.81 264.25L500.24 265.07L499.63 265.86L499 266.63L498.33 267.37L497.64 268.09L496.93 268.78L496.18 269.44L495.41 270.08L494.62 270.68L493.8 271.26L492.96 271.8L492.1 272.31L491.22 272.79L490.32 273.24L489.4 273.65L488.46 274.03L487.5 274.37L486.53 274.67L485.53 274.93L484.53 275.16L483.51 275.35L482.48 275.5L481.43 275.6L480.37 275.67L479.3 275.69L452.75 275.69L452.75 170.72L479.3 170.72Z" id="e4oNqwfYvs"></path><path d="M299.52 152.83L300.47 152.93L301.41 153.06L302.33 153.23L303.25 153.44L304.15 153.68L305.04 153.95L305.91 154.26L306.76 154.6L307.6 154.98L308.42 155.38L309.22 155.82L310 156.28L310.77 156.78L311.51 157.3L312.23 157.85L312.93 158.43L313.6 159.03L314.26 159.66L314.88 160.31L315.49 160.99L316.06 161.68L316.61 162.4L317.14 163.15L317.63 163.91L318.09 164.69L318.53 165.49L318.94 166.31L319.31 167.15L319.65 168.01L319.96 168.88L320.24 169.76L320.48 170.66L320.68 171.58L320.85 172.51L320.99 173.45L321.08 174.4L321.14 175.36L321.16 176.33L321.16 211.98L374.75 159.38L374.75 305.79L321.16 253.19L321.16 288.84L321.14 289.81L321.08 290.77L320.99 291.72L320.85 292.66L320.68 293.59L320.48 294.51L320.24 295.41L319.96 296.29L319.65 297.16L319.31 298.02L318.94 298.86L318.53 299.68L318.09 300.48L317.63 301.26L317.14 302.02L316.61 302.77L316.06 303.49L315.49 304.19L314.88 304.86L314.26 305.51L313.6 306.14L312.93 306.74L312.23 307.32L311.51 307.87L310.77 308.39L310 308.89L309.22 309.35L308.42 309.79L307.6 310.19L306.76 310.57L305.91 310.91L305.04 311.22L304.15 311.49L303.25 311.73L302.33 311.94L301.41 312.11L300.47 312.24L299.52 312.34L298.55 312.4L297.58 312.42L158.55 312.42L157.58 312.4L156.62 312.34L155.67 312.24L154.73 312.11L153.8 311.94L152.89 311.73L151.99 311.49L151.1 311.22L150.23 310.91L149.38 310.57L148.54 310.19L147.72 309.79L146.92 309.35L146.13 308.89L145.37 308.39L144.63 307.87L143.91 307.32L143.21 306.74L142.53 306.14L141.88 305.51L141.25 304.86L140.65 304.19L140.07 303.49L139.52 302.77L139 302.02L138.51 301.26L138.04 300.48L137.61 299.68L137.2 298.86L136.83 298.02L136.49 297.16L136.18 296.29L135.9 295.41L135.66 294.51L135.45 293.59L135.28 292.66L135.15 291.72L135.05 290.77L134.99 289.81L134.97 288.84L134.97 176.33L134.99 175.36L135.05 174.4L135.15 173.45L135.28 172.51L135.45 171.58L135.66 170.66L135.9 169.76L136.18 168.88L136.49 168.01L136.83 167.15L137.2 166.31L137.61 165.49L138.04 164.69L138.51 163.91L139 163.15L139.52 162.4L140.07 161.68L140.65 160.99L141.25 160.31L141.88 159.66L142.53 159.03L143.21 158.43L143.91 157.85L144.63 157.3L145.37 156.78L146.13 156.28L146.92 155.82L147.72 155.38L148.54 154.98L149.38 154.6L150.23 154.26L151.1 153.95L151.99 153.68L152.89 153.44L153.8 153.23L154.73 153.06L155.67 152.93L156.62 152.83L157.58 152.77L158.55 152.75L297.58 152.75L298.55 152.77L299.52 152.83Z" id="a1HzfNNERP"></path></defs><g><g><g><use xlink:href="#d3oqT3W1pv" opacity="1" fill="#179487" fill-opacity="1"></use></g><g><use xlink:href="#at6RdIoOx" opacity="1" fill="#179487" fill-opacity="1"></use></g><g><use xlink:href="#c8ZbZrGDp" opacity="1" fill="#205650" fill-opacity="1"></use></g><g><use xlink:href="#a184ebpqwO" opacity="1" fill="#179487" fill-opacity="1"></use></g><g><use xlink:href="#e12VNlwK3K" opacity="1" fill="#205650" fill-opacity="1"></use></g><g><use xlink:href="#e4oNqwfYvs" opacity="1" fill="#205650" fill-opacity="1"></use></g><g><use xlink:href="#a1HzfNNERP" opacity="1" fill="#f5f5f5" fill-opacity="1"></use></g></g></g></svg>